<svg width="135" height="28" viewBox="0 0 135 28" fill="none" xmlns="http://www.w3.org/2000/svg">
<path d="M43.78 20V8.93H40.432V7.616H48.568V8.93H45.22V20H43.78ZM56.6757 20L55.5777 16.616H50.8977L49.8177 20H48.3597L52.3197 7.616H54.2097L58.1697 20H56.6757ZM53.2917 9.2H53.2017L51.2577 15.338H55.1997L53.2917 9.2ZM69.9557 20V9.974H69.8837L66.3377 20H65.1137L61.5857 9.974H61.5137V20H60.1457V7.616H62.1977L65.7077 17.624H65.8157L69.3437 7.616H71.3597V20H69.9557ZM74.4543 7.616H77.9103C79.3863 7.616 80.4303 7.772 81.0423 8.084C81.6543 8.384 82.0443 8.936 82.2123 9.74C82.3803 10.532 82.4643 11.888 82.4643 13.808C82.4643 15.728 82.3803 17.09 82.2123 17.894C82.0443 18.686 81.6543 19.238 81.0423 19.55C80.4303 19.85 79.3863 20 77.9103 20H74.4543V7.616ZM77.7483 18.722C78.8763 18.722 79.6383 18.644 80.0343 18.488C80.4423 18.32 80.7063 17.924 80.8263 17.3C80.9583 16.676 81.0243 15.512 81.0243 13.808C81.0243 12.116 80.9583 10.958 80.8263 10.334C80.7063 9.698 80.4423 9.302 80.0343 9.146C79.6263 8.978 78.8643 8.894 77.7483 8.894H75.8943V18.722H77.7483ZM85.1945 20V7.616H92.1425V8.894H86.6345V13.106H91.4225V14.384H86.6345V18.722H92.1425V20H85.1945ZM104.338 20V9.974H104.266L100.72 20H99.4965L95.9685 9.974H95.8965V20H94.5285V7.616H96.5805L100.09 17.624H100.198L103.726 7.616H105.742V20H104.338ZM108.837 20V7.616H115.785V8.894H110.277V13.106H115.065V14.384H110.277V18.722H115.785V20H108.837ZM118.171 20V7.616H125.119V8.894H119.611V13.106H124.399V14.384H119.611V18.722H125.119V20H118.171ZM129.737 20V8.93H126.389V7.616H134.525V8.93H131.177V20H129.737Z" fill="white"/>
<path d="M19.5468 26.735C20.1633 26.4085 20.4116 25.6557 20.0825 25.0353C20.0825 25.0353 19.4692 23.8828 19.1314 23.2565C18.9594 24.0671 18.4857 24.3399 17.368 25.3076L17.8517 26.2179C18.0706 26.6271 18.9204 27.071 19.5468 26.735ZM16.3009 25.2706L18.021 23.7808C18.5985 23.275 18.5695 22.4138 18.0747 21.9361C17.5978 21.452 16.8396 21.4574 16.3673 21.8697L14.6468 23.364C14.1166 23.8219 14.0737 24.618 14.5289 25.1441C14.925 25.5957 15.7171 25.7691 16.3009 25.2706ZM22.3417 25.2548C22.9978 24.9035 23.1852 24.1438 22.8781 23.5501L20.9323 19.9167L21.4855 19.5685L23.6498 23.6535C23.9728 24.2618 24.7223 24.493 25.345 24.175C25.993 23.8255 26.1999 23.0723 25.8805 22.4708L23.6304 18.2332L24.2035 17.8895C24.2035 17.8895 25.6918 20.7539 26.2279 21.7744C26.5592 22.3922 27.326 22.6139 27.924 22.2914C28.5525 21.9591 28.7873 21.21 28.459 20.5877C26.7738 17.396 27.1401 18.0675 26.4532 16.9417C24.4247 14.1248 21.4674 12.1911 18.5551 9.77929L13.3796 12.2097C12.3107 12.701 11.1859 12.1898 10.7424 11.2749C10.2583 10.2671 10.6846 9.09204 11.665 8.61742L12.9032 8.03621L8.9257 8.02492L4.71205 13.7911L7.45809 16.3162C7.5737 16.062 7.74484 15.834 7.95847 15.6484L11.0418 12.971C11.8637 12.2688 13.1082 12.3401 13.8362 13.1688C14.1952 13.587 14.3663 14.1009 14.3252 14.6301C15.0446 14.4676 15.7757 14.725 16.2471 15.2632C16.8251 15.9297 16.8992 16.8668 16.4566 17.5907C16.9176 17.6651 17.3322 17.895 17.6361 18.2459C18.3143 19.0311 18.2778 20.1646 17.6163 20.8876C18.0696 20.8207 18.6057 21.0605 18.8581 21.4488C18.8581 21.4488 20.1704 23.8323 20.6472 24.7363C20.8622 25.1468 21.718 25.588 22.3417 25.2548ZM14.2282 22.8817L16.9738 20.5015C17.4899 20.0575 17.555 19.2632 17.0858 18.7218C16.641 18.2043 15.8458 18.1366 15.3192 18.5963C15.2551 18.6523 12.5357 21.0063 12.4765 21.0682C12.0398 21.536 12.0331 22.2617 12.4617 22.7567C12.8676 23.2272 13.6696 23.3667 14.2282 22.8817ZM11.8168 20.7855L15.5829 17.5211C16.1067 17.0722 16.1654 16.2783 15.7003 15.7414C15.237 15.2127 14.4509 15.1643 13.9333 15.615L10.4946 18.5904C9.69757 19.0935 9.58786 20.1295 10.0507 20.6609C10.4354 21.1125 11.2465 21.2846 11.8168 20.7855ZM8.3198 17.9776C7.85242 17.4371 7.92015 16.641 8.43269 16.198L11.5169 13.5201C12.0335 13.0794 12.8278 13.1196 13.2889 13.6466C13.7518 14.1853 13.7026 14.9678 13.176 15.4262L10.0872 18.1041C9.60406 18.5272 8.81155 18.5394 8.3198 17.9776ZM18.6644 8.92535L13.07 11.5513C12.4115 11.8588 11.6859 11.5571 11.3951 10.9584C11.0817 10.3036 11.3675 9.56845 11.9803 9.26994L17.6105 6.62916C18.3931 6.34374 19.1743 6.21504 20.1349 6.21504C22.0704 6.21504 26.0442 7.25685 27.8748 7.77663L31.1632 13.3847L29.2775 14.5732C28.8259 15.0063 28.4565 16.2274 27.4676 16.8772C25.4431 14.1338 21.904 11.274 18.6644 8.92535ZM28.3841 6.62863L31.8415 4.51572L36 11.4713L32.4067 13.4867L28.3841 6.62863ZM0 11.0654L4.85801 4L8.43176 6.86524L3.68571 13.4501L0 11.0654Z" fill="white"/>
</svg>
