<svg width="34" height="22" viewBox="0 0 34 22" fill="none" xmlns="http://www.w3.org/2000/svg">
<path d="M18.3676 21.3634C18.9469 21.0567 19.1802 20.3493 18.8709 19.7663C18.8709 19.7663 18.2947 18.6833 17.9772 18.0948C17.8156 18.8565 17.3705 19.1128 16.3202 20.0222L16.7747 20.8776C16.9805 21.262 17.779 21.6792 18.3676 21.3634ZM15.3175 19.9873L16.9338 18.5874C17.4765 18.1122 17.4493 17.3029 16.9843 16.854C16.5362 16.3992 15.8237 16.4042 15.3799 16.7917L13.7631 18.1958C13.265 18.6261 13.2247 19.3742 13.6524 19.8685C14.0246 20.2929 14.7689 20.4558 15.3175 19.9873ZM20.9938 19.9725C21.6104 19.6424 21.7865 18.9286 21.4979 18.3706L19.6695 14.9565L20.1893 14.6293L22.2231 18.4678C22.5265 19.0394 23.2309 19.2567 23.816 18.9579C24.4249 18.6294 24.6193 17.9217 24.3192 17.3565L22.2049 13.3745L22.7433 13.0516C22.7433 13.0516 24.1419 15.7432 24.6456 16.7021C24.957 17.2826 25.6775 17.491 26.2394 17.1879C26.83 16.8757 27.0506 16.1717 26.7422 15.587C25.1586 12.5878 25.5028 13.2188 24.8573 12.1609C22.9512 9.51396 20.1723 7.69695 17.4357 5.43064L12.5725 7.71442C11.568 8.17607 10.5111 7.69576 10.0944 6.83605C9.63945 5.88898 10.04 4.78484 10.9612 4.33886L12.1248 3.79272L8.38723 3.78211L4.42778 9.20039L7.00815 11.5732C7.1168 11.3343 7.27761 11.1201 7.47835 10.9456L10.3757 8.42979C11.148 7.76996 12.3174 7.83698 13.0015 8.61569C13.3388 9.00863 13.4996 9.4915 13.461 9.98884C14.137 9.83608 14.824 10.0779 15.267 10.5837C15.8101 11.21 15.8797 12.0905 15.4638 12.7708C15.897 12.8407 16.2866 13.0568 16.5722 13.3864C17.2095 14.1243 17.1751 15.1895 16.5535 15.8688C16.9795 15.8059 17.4832 16.0313 17.7204 16.3962C17.7204 16.3962 18.9536 18.6359 19.4016 19.4853C19.6036 19.8711 20.4078 20.2856 20.9938 19.9725ZM13.3698 17.7426L15.9498 15.506C16.4348 15.0888 16.4959 14.3424 16.055 13.8337C15.6371 13.3474 14.8898 13.2838 14.395 13.7157C14.3347 13.7683 11.7795 15.9803 11.7239 16.0385C11.3135 16.4781 11.3072 17.16 11.7099 17.6251C12.0913 18.0672 12.845 18.1984 13.3698 17.7426ZM11.1039 15.7729L14.6428 12.7054C15.135 12.2836 15.1902 11.5376 14.7531 11.0331C14.3178 10.5362 13.5791 10.4908 13.0928 10.9143L9.86147 13.7102C9.11253 14.1829 9.00944 15.1564 9.44438 15.6558C9.80588 16.0801 10.568 16.2418 11.1039 15.7729ZM7.81788 13.1344C7.3787 12.6264 7.44235 11.8784 7.92396 11.4621L10.8222 8.94579C11.3076 8.53163 12.054 8.56945 12.4872 9.0646C12.9222 9.57081 12.8759 10.3062 12.3811 10.7369L9.4787 13.2532C9.02467 13.6508 8.27997 13.6622 7.81788 13.1344ZM17.5385 4.62821L12.2815 7.0957C11.6628 7.38469 10.9809 7.1012 10.7076 6.53858C10.4132 5.9233 10.6817 5.23251 11.2575 4.95202L16.5481 2.47055C17.2835 2.20235 18.0176 2.08141 18.9202 2.08141C20.7389 2.08141 24.473 3.06037 26.1932 3.54879L29.2832 8.81856L27.5113 9.93536C27.0869 10.3423 26.7398 11.4897 25.8106 12.1003C23.9082 9.52245 20.5826 6.83518 17.5385 4.62821ZM26.6718 2.47005L29.9205 0.484612L33.8282 7.02057L30.4517 8.9144L26.6718 2.47005ZM0 6.63911L4.56494 0L7.92309 2.69239L3.46336 8.88002L0 6.63911Z" fill="white"/>
</svg>
